<svg version="1.1" xmlns="http://www.w3.org/2000/svg" xmlns:xlink="http://www.w3.org/1999/xlink" viewBox="0 0 172 172"><defs><linearGradient x1="86" y1="13.4375" x2="86" y2="160.07556" gradientUnits="userSpaceOnUse" id="color-1"><stop offset="0" stop-color="#87f3ca"></stop><stop offset="1" stop-color="#00e88f"></stop></linearGradient><linearGradient x1="86" y1="58.67619" x2="86" y2="118.49188" gradientUnits="userSpaceOnUse" id="color-2"><stop offset="0" stop-color="#edfdf7"></stop><stop offset="1" stop-color="#59ffc0"></stop></linearGradient></defs><g fill="none" fill-rule="nonzero" stroke="none" stroke-width="1" stroke-linecap="butt" stroke-linejoin="miter" stroke-miterlimit="10" stroke-dasharray="" stroke-dashoffset="0" font-family="none" font-weight="none" font-size="none" text-anchor="none" style="mix-blend-mode: normal"><path d="M0,172v-172h172v172z" fill="none"></path><g><path d="M86,155.875c-4.93963,0 -9.53525,-2.24675 -12.60706,-6.16244c-4.46662,2.41606 -9.57288,2.73319 -14.13356,0.84119c-4.558,-1.88931 -7.94694,-5.72169 -9.29069,-10.51619c-5.04713,0.5375 -9.88731,-1.1395 -13.37837,-4.63056c-3.49106,-3.49106 -5.15462,-8.32856 -4.56069,-13.27088c-4.86437,-1.45125 -8.69406,-4.84019 -10.58337,-9.39819c-1.892,-4.56069 -1.57487,-9.66694 0.86269,-14.00725c-3.93987,-3.19813 -6.18394,-7.79375 -6.18394,-12.73069c0,-4.93694 2.24406,-9.53256 6.15706,-12.60706c-2.41069,-4.46662 -2.7305,-9.57288 -0.8385,-14.13356c1.88931,-4.558 5.72169,-7.94694 10.51081,-9.29069c-0.51869,-5.04981 1.14488,-9.88731 4.63594,-13.37837c3.49106,-3.49106 8.32319,-5.16269 13.27087,-4.56069c1.45125,-4.86437 4.84019,-8.69406 9.39819,-10.58337c4.56606,-1.88394 9.66694,-1.57219 14.00725,0.86269c3.19813,-3.93719 7.79375,-6.18394 12.73337,-6.18394c4.93963,0 9.53525,2.24675 12.60706,6.16244c4.46394,-2.41606 9.57287,-2.73319 14.13356,-0.84119c4.558,1.88931 7.94694,5.72169 9.29069,10.51619c5.03638,-0.54556 9.88194,1.1395 13.37838,4.63056c3.49106,3.49106 5.15462,8.32856 4.56069,13.27087c4.86437,1.45394 8.69406,4.84019 10.58338,9.39819c1.88931,4.56338 1.57487,9.66962 -0.86269,14.00725c3.93719,3.19544 6.18394,7.79106 6.18394,12.73069c0,4.93963 -2.24675,9.53525 -6.16244,12.60706c2.41606,4.46394 2.73319,9.57019 0.84119,14.13356c-1.88931,4.558 -5.72169,7.94425 -10.5135,9.29069c0.52138,5.04981 -1.14219,9.88731 -4.63325,13.37838c-3.49375,3.49106 -8.3205,5.16269 -13.27088,4.56069c-1.44856,4.86437 -4.8375,8.69406 -9.3955,10.58338c-4.56069,1.88931 -9.66694,1.57219 -14.00725,-0.86269c-3.20081,3.93987 -7.79644,6.18394 -12.73337,6.18394zM73.32306,144.29456c1.62594,0 3.21694,0.72831 4.29462,2.09625c2.04788,2.61225 5.10356,4.10919 8.38231,4.10919c3.27875,0 6.33175,-1.49694 8.38231,-4.10381c1.66894,-2.13387 4.61175,-2.73587 6.9875,-1.38944c2.89175,1.62325 6.28606,1.84094 9.31488,0.58319c3.02612,-1.25506 5.27825,-3.8055 6.17319,-6.99825c0.731,-2.623 3.23575,-4.27312 5.92325,-3.95869c3.28681,0.39775 6.50912,-0.70681 8.82844,-3.02344c2.31663,-2.31662 3.4185,-5.53625 3.02344,-8.82844c-0.32519,-2.70094 1.33837,-5.19225 3.96138,-5.92325c3.19275,-0.89763 5.74319,-3.14706 6.99825,-6.17319c1.25506,-3.02881 1.04275,-6.42581 -0.58588,-9.31488c-1.33031,-2.36769 -0.74712,-5.30512 1.38944,-6.9875c2.60688,-2.05056 4.10381,-5.10356 4.10381,-8.38231c0,-3.27875 -1.49694,-6.33175 -4.10381,-8.38231c-2.13925,-1.68238 -2.72244,-4.61981 -1.38944,-6.9875c1.62325,-2.88906 1.83825,-6.28606 0.58319,-9.31488c-1.25506,-3.02613 -3.8055,-5.27556 -7.00094,-6.17319c-2.61763,-0.731 -4.28119,-3.22231 -3.956,-5.92594c0.39506,-3.29219 -0.70681,-6.50913 -3.02344,-8.82575c-2.31931,-2.31931 -5.54431,-3.42119 -8.83112,-3.02344c-2.70631,0.301 -5.19225,-1.34106 -5.92056,-3.96138c-0.89494,-3.19275 -3.14706,-5.74319 -6.17319,-6.99825c-3.02881,-1.25506 -6.42312,-1.04006 -9.31488,0.58588c-2.36769,1.32494 -5.3105,0.74981 -6.99019,-1.39213c-2.04787,-2.60419 -5.10356,-4.10112 -8.37962,-4.10112c-3.27606,0 -6.33175,1.49694 -8.38231,4.10381c-1.67969,2.14194 -4.61981,2.72512 -6.9875,1.38944c-2.89175,-1.62325 -6.28875,-1.83556 -9.31488,-0.58319c-3.02613,1.25506 -5.27825,3.8055 -6.17319,6.99825c-0.73369,2.623 -3.25188,4.27581 -5.92594,3.95869c-3.31906,-0.41925 -6.51181,0.70681 -8.82575,3.02344c-2.31663,2.31662 -3.4185,5.53625 -3.02344,8.82844c0.31981,2.70363 -1.34644,5.19494 -3.96406,5.92325c-3.19006,0.89494 -5.7405,3.14706 -6.99556,6.17319c-1.25506,3.02881 -1.04275,6.42312 0.58588,9.31488c1.33031,2.37038 0.74444,5.30781 -1.39481,6.9875c-2.60419,2.05056 -4.09844,5.10356 -4.09844,8.38231c0,3.27875 1.49694,6.33175 4.10381,8.38231c2.13656,1.67969 2.72244,4.61713 1.38944,6.9875c-1.62325,2.89175 -1.83825,6.28606 -0.58319,9.31488c1.25506,3.02612 3.8055,5.27825 6.99825,6.17319c2.61494,0.72831 4.2785,3.21963 3.95869,5.92056c-0.39506,3.29756 0.70681,6.5145 3.02344,8.83113c2.31662,2.31663 5.5255,3.40506 8.82844,3.02344c2.67406,-0.301 5.18956,1.33569 5.92325,3.956c0.89494,3.19544 3.14706,5.74856 6.17319,7.00094c3.02881,1.25775 6.42312,1.04275 9.31488,-0.58588c0.85194,-0.47837 1.77912,-0.7095 2.69288,-0.7095z" fill="url(#color-1)"></path><path d="M76.42444,109.38663c-2.75469,0 -5.51206,-1.04812 -7.60831,-3.14706l-13.08006,-13.08006c-2.09894,-2.09894 -2.09894,-5.50131 0,-7.60025v0c2.09894,-2.09894 5.50131,-2.09894 7.60025,0l9.27994,9.27994c2.09894,2.09894 5.50131,2.09894 7.60025,0l28.4445,-28.43106c2.09894,-2.09894 5.50131,-2.09894 7.60025,0v0c2.09894,2.09894 2.09894,5.50131 0,7.60025l-32.2285,32.23119c-2.09625,2.09894 -4.85363,3.14706 -7.60831,3.14706z" fill="url(#color-2)"></path></g></g></svg>
